<svg width="571" height="491" viewBox="0 0 571 491" fill="none" xmlns="http://www.w3.org/2000/svg">
<rect width="571" height="491" rx="36" fill="white"/>
<g filter="url(#filter0_d_1341_778)">
<rect x="44" y="65" width="114" height="141" rx="16" fill="white"/>
</g>
<g filter="url(#filter1_d_1341_778)">
<rect x="44" y="239" width="482" height="208" rx="16" fill="white"/>
</g>
<g filter="url(#filter2_d_1341_778)">
<rect x="228" y="65" width="114" height="141" rx="16" fill="white"/>
</g>
<g filter="url(#filter3_d_1341_778)">
<rect x="412" y="65" width="114" height="141" rx="16" fill="white"/>
</g>
<path d="M136 135C136 127.318 133.473 119.85 128.808 113.746C124.143 107.643 117.6 103.244 110.188 101.227C102.775 99.2109 94.9055 99.689 87.7917 102.588C80.6779 105.487 74.7154 110.646 70.8238 117.269C66.9321 123.892 65.3275 131.611 66.2574 139.237C67.1872 146.862 70.5999 153.97 75.9691 159.463C81.3383 164.957 88.3658 168.532 95.9678 169.636C103.57 170.741 111.324 169.314 118.035 165.575L112.243 155.179C107.814 157.646 102.696 158.588 97.6788 157.859C92.6617 157.13 88.0237 154.771 84.4801 151.145C80.9365 147.52 78.6842 142.829 78.0705 137.796C77.4568 132.764 78.5158 127.669 81.0842 123.298C83.6527 118.927 87.5878 115.522 92.2828 113.609C96.9777 111.695 102.172 111.38 107.064 112.711C111.956 114.042 116.274 116.945 119.353 120.973C122.431 125.001 124.099 129.93 124.099 135H136Z" fill="#BDFF69"/>
<path d="M320 135C320 126.389 316.826 118.081 311.085 111.664C305.344 105.246 297.439 101.171 288.881 100.216C280.324 99.261 271.715 101.494 264.7 106.488C257.686 111.482 252.759 118.887 250.861 127.286C248.963 135.684 250.228 144.488 254.413 152.013C258.599 159.538 265.411 165.256 273.547 168.073C281.684 170.891 290.574 170.61 298.516 167.285C306.459 163.96 312.897 157.823 316.599 150.049L305.855 144.932C303.411 150.063 299.162 154.113 293.92 156.307C288.678 158.502 282.812 158.687 277.442 156.828C272.072 154.968 267.576 151.194 264.813 146.228C262.051 141.262 261.216 135.452 262.469 129.909C263.721 124.366 266.973 119.479 271.603 116.183C276.232 112.887 281.914 111.413 287.561 112.043C293.209 112.673 298.427 115.363 302.216 119.599C306.005 123.834 308.099 129.317 308.099 135H320Z" fill="#BDFF69"/>
<path d="M504 135C504 129.244 502.581 123.577 499.867 118.501C497.154 113.425 493.231 109.096 488.445 105.899C483.659 102.701 478.159 100.733 472.431 100.169C466.703 99.6044 460.924 100.462 455.606 102.664C450.288 104.867 445.596 108.347 441.945 112.796C438.293 117.246 435.795 122.527 434.673 128.172C433.55 133.817 433.836 139.652 435.507 145.16C437.178 150.668 440.181 155.679 444.251 159.749L452.666 151.334C449.98 148.648 447.998 145.341 446.895 141.705C445.793 138.07 445.603 134.219 446.344 130.494C447.086 126.768 448.734 123.282 451.144 120.346C453.554 117.409 456.651 115.113 460.16 113.659C463.67 112.205 467.484 111.64 471.264 112.012C475.045 112.384 478.675 113.683 481.833 115.794C484.992 117.904 487.581 120.761 489.372 124.111C491.163 127.461 492.099 131.201 492.099 135H504Z" fill="#BDFF69"/>
<path d="M504 135C504 130.042 502.947 125.14 500.909 120.62C498.872 116.099 495.898 112.064 492.183 108.779C488.469 105.495 484.099 103.038 479.363 101.569C474.627 100.101 469.634 99.6562 464.713 100.264L466.171 112.075C469.418 111.674 472.714 111.968 475.84 112.936C478.965 113.905 481.849 115.527 484.301 117.695C486.752 119.862 488.715 122.526 490.06 125.509C491.404 128.493 492.099 131.728 492.099 135H504Z" fill="#2358B7"/>
<path d="M320 135C320 129.428 318.669 123.936 316.119 118.981C313.569 114.026 309.872 109.752 305.337 106.515C300.801 103.277 295.559 101.169 290.044 100.365C284.53 99.5623 278.904 100.087 273.633 101.897C268.363 103.707 263.601 106.749 259.743 110.77C255.885 114.791 253.043 119.676 251.454 125.017C249.865 130.358 249.573 136.001 250.605 141.477C251.636 146.953 253.96 152.104 257.383 156.501L266.773 149.19C264.514 146.289 262.98 142.889 262.3 139.275C261.619 135.661 261.811 131.936 262.86 128.411C263.909 124.886 265.785 121.663 268.331 119.009C270.877 116.355 274.02 114.347 277.498 113.153C280.977 111.958 284.69 111.612 288.329 112.142C291.968 112.672 295.429 114.063 298.422 116.2C301.415 118.337 303.855 121.158 305.538 124.428C307.221 127.698 308.099 131.322 308.099 135H320Z" fill="#2358B7"/>
<path d="M136 135C136 126.512 132.916 118.313 127.321 111.93C121.726 105.547 114.003 101.415 105.588 100.302C97.1732 99.1894 88.6409 101.173 81.5795 105.882C74.5181 110.592 69.4088 117.707 67.2028 125.904L78.6944 128.996C80.1504 123.587 83.5224 118.891 88.1828 115.783C92.8432 112.675 98.4743 111.366 104.028 112.1C109.581 112.834 114.679 115.562 118.371 119.774C122.064 123.987 124.099 129.398 124.099 135H136Z" fill="#2358B7"/>
<rect x="161" y="306" width="27" height="116" rx="12" fill="#2358B7"/>
<rect x="469" y="251" width="27" height="23" rx="11.5" fill="#508AF4"/>
<rect x="436" y="251" width="27" height="23" rx="11.5" fill="#BDFF69"/>
<rect x="254" y="277" width="27" height="145" rx="12" fill="#2358B7"/>
<rect x="347" y="319" width="27" height="103" rx="12" fill="#2358B7"/>
<rect x="440" y="297" width="27" height="125" rx="12" fill="#2358B7"/>
<rect x="104" y="354" width="27" height="68" rx="12" fill="#BDFF69"/>
<rect x="197" y="347" width="27" height="75" rx="12" fill="#BDFF69"/>
<rect x="290" y="319" width="27" height="103" rx="12" fill="#BDFF69"/>
<rect x="383" y="354" width="27" height="68" rx="12" fill="#BDFF69"/>
<rect x="476" y="380" width="27" height="42" rx="12" fill="#BDFF69"/>
<rect x="58" y="183" width="69" height="11" rx="5.5" fill="#2358B7" fill-opacity="0.6"/>
<rect x="259" y="76" width="69" height="11" rx="5.5" fill="#2358B7" fill-opacity="0.6"/>
<rect x="429" y="183" width="69" height="11" rx="5.5" fill="#2358B7" fill-opacity="0.6"/>
<rect x="68" y="277" width="27" height="145" rx="12" fill="#2358B7"/>
<defs>
<filter id="filter0_d_1341_778" x="16.1" y="41.1" width="169.8" height="196.8" filterUnits="userSpaceOnUse" color-interpolation-filters="sRGB">
<feFlood flood-opacity="0" result="BackgroundImageFix"/>
<feColorMatrix in="SourceAlpha" type="matrix" values="0 0 0 0 0 0 0 0 0 0 0 0 0 0 0 0 0 0 127 0" result="hardAlpha"/>
<feMorphology radius="1" operator="dilate" in="SourceAlpha" result="effect1_dropShadow_1341_778"/>
<feOffset dy="4"/>
<feGaussianBlur stdDeviation="13.45"/>
<feComposite in2="hardAlpha" operator="out"/>
<feColorMatrix type="matrix" values="0 0 0 0 0 0 0 0 0 0 0 0 0 0 0 0 0 0 0.25 0"/>
<feBlend mode="normal" in2="BackgroundImageFix" result="effect1_dropShadow_1341_778"/>
<feBlend mode="normal" in="SourceGraphic" in2="effect1_dropShadow_1341_778" result="shape"/>
</filter>
<filter id="filter1_d_1341_778" x="16.1" y="215.1" width="537.8" height="263.8" filterUnits="userSpaceOnUse" color-interpolation-filters="sRGB">
<feFlood flood-opacity="0" result="BackgroundImageFix"/>
<feColorMatrix in="SourceAlpha" type="matrix" values="0 0 0 0 0 0 0 0 0 0 0 0 0 0 0 0 0 0 127 0" result="hardAlpha"/>
<feMorphology radius="1" operator="dilate" in="SourceAlpha" result="effect1_dropShadow_1341_778"/>
<feOffset dy="4"/>
<feGaussianBlur stdDeviation="13.45"/>
<feComposite in2="hardAlpha" operator="out"/>
<feColorMatrix type="matrix" values="0 0 0 0 0 0 0 0 0 0 0 0 0 0 0 0 0 0 0.25 0"/>
<feBlend mode="normal" in2="BackgroundImageFix" result="effect1_dropShadow_1341_778"/>
<feBlend mode="normal" in="SourceGraphic" in2="effect1_dropShadow_1341_778" result="shape"/>
</filter>
<filter id="filter2_d_1341_778" x="200.1" y="41.1" width="169.8" height="196.8" filterUnits="userSpaceOnUse" color-interpolation-filters="sRGB">
<feFlood flood-opacity="0" result="BackgroundImageFix"/>
<feColorMatrix in="SourceAlpha" type="matrix" values="0 0 0 0 0 0 0 0 0 0 0 0 0 0 0 0 0 0 127 0" result="hardAlpha"/>
<feMorphology radius="1" operator="dilate" in="SourceAlpha" result="effect1_dropShadow_1341_778"/>
<feOffset dy="4"/>
<feGaussianBlur stdDeviation="13.45"/>
<feComposite in2="hardAlpha" operator="out"/>
<feColorMatrix type="matrix" values="0 0 0 0 0 0 0 0 0 0 0 0 0 0 0 0 0 0 0.25 0"/>
<feBlend mode="normal" in2="BackgroundImageFix" result="effect1_dropShadow_1341_778"/>
<feBlend mode="normal" in="SourceGraphic" in2="effect1_dropShadow_1341_778" result="shape"/>
</filter>
<filter id="filter3_d_1341_778" x="384.1" y="41.1" width="169.8" height="196.8" filterUnits="userSpaceOnUse" color-interpolation-filters="sRGB">
<feFlood flood-opacity="0" result="BackgroundImageFix"/>
<feColorMatrix in="SourceAlpha" type="matrix" values="0 0 0 0 0 0 0 0 0 0 0 0 0 0 0 0 0 0 127 0" result="hardAlpha"/>
<feMorphology radius="1" operator="dilate" in="SourceAlpha" result="effect1_dropShadow_1341_778"/>
<feOffset dy="4"/>
<feGaussianBlur stdDeviation="13.45"/>
<feComposite in2="hardAlpha" operator="out"/>
<feColorMatrix type="matrix" values="0 0 0 0 0 0 0 0 0 0 0 0 0 0 0 0 0 0 0.25 0"/>
<feBlend mode="normal" in2="BackgroundImageFix" result="effect1_dropShadow_1341_778"/>
<feBlend mode="normal" in="SourceGraphic" in2="effect1_dropShadow_1341_778" result="shape"/>
</filter>
</defs>
</svg>
